<svg xmlns="http://www.w3.org/2000/svg" width="256" height="256" viewBox="0 0 100 100"><rect width="100" height="100" rx="20" fill="#0c4a6e"></rect><path fill="#fff" d="M32.26 22.88Q35.11 22.88 36.46 23.36Q37.81 23.83 38.39 24.92L38.39 24.92Q39.20 26.60 39.20 29.45L39.20 29.45L39.20 57.70Q39.20 65.37 33.65 71.24Q28.10 77.12 19.49 77.12L19.49 77.12Q14.67 77.12 10.95 75.00L10.95 75.00Q7.59 73.18 6.27 71.72L6.27 71.72L5.69 71.13Q3.13 68.43 3.13 66.50Q3.13 64.56 5.69 61.94Q8.24 59.31 10.21 59.31Q12.19 59.31 14.59 61.72Q17.00 64.13 19.81 64.13Q22.63 64.13 24.45 62.23Q26.27 60.33 26.27 57.19L26.27 57.19L26.27 29.89Q26.27 25.51 27.73 24.27L27.73 24.27Q29.41 22.88 32.26 22.88ZM75.91 26.68L75.91 26.68L95.63 67.41Q96.87 69.89 96.87 71.13L96.87 71.13Q96.87 73.76 92.63 75.88L92.63 75.88Q90.15 77.12 88.73 77.12Q87.30 77.12 86.39 76.46Q85.48 75.81 85.08 75.08Q84.67 74.35 83.94 72.89L83.94 72.89L80.15 65.00L59.93 65.00L56.13 72.89Q55.40 74.35 55.00 75.00Q54.60 75.66 53.69 76.35Q52.77 77.05 51.35 77.05Q49.93 77.05 47.45 75.81L47.45 75.81Q43.21 73.76 43.21 71.13L43.21 71.13Q43.21 69.89 44.45 67.41L44.45 67.41L64.16 26.60Q64.97 24.92 66.61 23.90Q68.25 22.88 70.08 22.88L70.08 22.88Q74.02 22.88 75.91 26.68ZM74.89 54.20L70.00 44.20L65.18 54.20L74.89 54.20Z"></path></svg>